<svg width="509" height="147" viewBox="0 0 509 147" fill="none" xmlns="http://www.w3.org/2000/svg">
<path fill-rule="evenodd" clip-rule="evenodd" d="M505.85 17.2762C505.537 18.715 504.02 19.8649 502.458 19.8649H474.166V56.7568H499.061C500.624 56.7568 501.892 58.0275 501.892 59.5946V73.7838C501.892 75.3509 500.624 76.6216 499.061 76.6216H474.166V113.514H506.462C508.199 113.514 509.303 114.917 508.933 116.62L505.85 130.79C505.537 132.229 504.02 133.378 502.458 133.378H471.335H469.639H454.364C452.8 133.378 451.533 132.108 451.533 130.541V2.83785C451.533 1.2708 452.8 1.57696e-05 454.364 1.57696e-05H469.957H471.335H506.462C508.199 1.57696e-05 509.303 1.40304 508.933 3.10688L505.85 17.2762ZM442.463 144.299C442.463 144.299 439.47 149.13 434.757 144.299C431.395 140.853 426.642 136.137 423.849 133.378H373.905C371.043 136.583 367.235 140.872 364.395 144.162C359.55 149.775 356.473 144.162 356.473 144.162C356.473 144.162 356.419 130.09 356.473 129.405V114.649C356.473 114.021 356.98 113.514 357.606 113.514H365.097C366.839 111.688 368.691 106.692 369.488 99.8919C370.326 92.7281 374.013 14.7568 374.014 14.7568V2.83785C374.014 1.2708 375.281 1.57696e-05 376.845 1.57696e-05H414.756H430.595C432.159 1.57696e-05 433.426 1.2708 433.426 2.83785V17.027V113.514H441.347C441.973 113.514 442.48 114.021 442.48 114.649V132.243C442.48 132.252 442.477 132.26 442.477 132.268C442.503 134.916 442.463 144.299 442.463 144.299ZM411.925 19.8649H393.585L393.818 19.9256C393.818 19.9256 391.679 94.5857 390.423 103.297C389.602 108.991 388.435 112.051 387.706 113.514H411.925V19.8649ZM359.3 17.2762C358.987 18.715 357.47 19.8649 355.908 19.8649H328.182V130.541C328.182 132.108 326.914 133.378 325.351 133.378H309.511C307.948 133.378 306.68 132.108 306.68 130.541V2.83785C306.68 1.2708 307.948 1.57696e-05 309.511 1.57696e-05H323.407H325.351H359.912C361.649 1.57696e-05 362.753 1.40304 362.383 3.10688L359.3 17.2762ZM265.742 133.378H259.349C243.714 133.378 231.04 120.673 231.04 105V28.5736C231.04 12.9008 243.714 0.195259 259.349 0.195259H265.742C281.377 0.195259 294.051 12.9008 294.051 28.5736V105C294.051 120.673 281.377 133.378 265.742 133.378ZM273.235 30.0981C273.235 24.1801 268.449 19.3824 262.545 19.3824C256.642 19.3824 251.856 24.1801 251.856 30.0981V104.604C251.856 110.522 256.642 115.32 262.545 115.32C268.449 115.32 273.235 110.522 273.235 104.604V30.0981ZM226.653 132.987L209.587 132.937C208.685 132.935 206.851 132.534 206.528 131.676L188.344 83.1657L181.631 96.747V130.541C181.631 132.108 180.364 133.378 178.801 133.378H161.829C160.266 133.378 158.998 132.108 158.998 130.541V2.83785C158.998 1.2708 160.266 1.57696e-05 161.829 1.57696e-05H178.801C180.364 1.57696e-05 181.631 1.2708 181.631 2.83785V56.301L206.573 3.00585C207.322 1.40645 209.348 -0.0470923 211.187 1.57696e-05H225.908C227.975 0.0533671 228.434 2.05461 227.581 3.78115L200.836 57.8913L227.942 131.294C228.288 132.232 227.708 132.99 226.653 132.987ZM143.719 133.378H126.748C125.185 133.378 123.917 132.108 123.917 130.541V63.9575L102.371 131.577C101.896 133.07 100.303 133.893 98.8139 133.415L98.6979 133.378H82.6131C81.0493 133.378 79.7822 132.108 79.7822 130.541V2.83785C79.7822 1.2708 81.0493 1.57696e-05 82.6131 1.57696e-05H99.5845C101.148 1.57696e-05 102.415 1.2708 102.415 2.83785V66.1875L122.861 2.01942C123.297 0.649881 124.673 -0.15266 126.047 0.0913941C126.272 0.0340698 126.505 1.57696e-05 126.748 1.57696e-05H143.719C145.282 1.57696e-05 146.55 1.2708 146.55 2.83785V130.541C146.55 132.108 145.282 133.378 143.719 133.378ZM63.937 133.378H46.9656C45.4023 133.378 44.1347 132.108 44.1347 130.541V76.6216H22.6332V130.541C22.6332 132.108 21.3655 133.378 19.8023 133.378H2.83092C1.26769 133.378 0 132.108 0 130.541V2.83785C0 1.2708 1.26769 1.57696e-05 2.83092 1.57696e-05H19.8023C21.3655 1.57696e-05 22.6332 1.2708 22.6332 2.83785V56.7568H44.1347V2.83785C44.1347 1.2708 45.4023 1.57696e-05 46.9656 1.57696e-05H63.937C65.5008 1.57696e-05 66.7679 1.2708 66.7679 2.83785V130.541C66.7679 132.108 65.5008 133.378 63.937 133.378Z" fill="white"/>
</svg>
